<svg width="155" height="145" viewBox="0 0 155 145" xmlns="http://www.w3.org/2000/svg"
  fill="#df3c3d">
  <circle fill="" r="28" cx="120" cy="30">
    <animate
      attributeName="r"
      values="15;35"
      dur="1s"
      repeatCount="indefinite"
      calcMode="spline"
      keySplines="0.5 0 0.5 1"
    />
    <animate
      attributeName="opacity"
      values="1;0"
      dur="1s"
      repeatCount="indefinite"
      calcMode="spline"
      keySplines="0.5 0 0.5 1" />
  </circle>
  <path
    d="M119.792 48.3335C129.802 48.3335 137.917 40.2186 137.917 30.2085C137.917 20.1984 129.802 12.0835 119.792 12.0835C109.781 12.0835 101.667 20.1984 101.667 30.2085C101.667 40.2186 109.781 48.3335 119.792 48.3335Z"
    fill="" />
  <path
    d="M119.792 57.3958C104.808 57.3958 92.6042 45.1917 92.6042 30.2083C92.6042 25.8583 93.7521 21.8104 95.5646 18.125H50.4334C29.5896 18.125 17.0834 30.5708 17.0834 51.475V99.5062C17.0834 120.471 29.5896 132.917 50.4334 132.917H98.4646C119.369 132.917 131.815 120.471 131.815 99.5667V54.4354C128.19 56.2479 124.142 57.3958 119.792 57.3958Z"
    fill="" />
  <path
    d="M75.9896 84.5835H45.7812C43.3042 84.5835 41.25 82.5293 41.25 80.0522C41.25 77.5752 43.3042 75.521 45.7812 75.521H75.9896C78.4667 75.521 80.5208 77.5752 80.5208 80.0522C80.5208 82.5293 78.4667 84.5835 75.9896 84.5835Z"
    opacity="0.5" fill="#ffffff" />
  <path
    d="M100.156 108.75H45.7812C43.3042 108.75 41.25 106.696 41.25 104.219C41.25 101.742 43.3042 99.6875 45.7812 99.6875H100.156C102.633 99.6875 104.687 101.742 104.687 104.219C104.687 106.696 102.633 108.75 100.156 108.75Z"
    opacity="0.5" fill="#ffffff" />
</svg>