<svg width="628" height="156" viewBox="0 0 628 156" fill="none" xmlns="http://www.w3.org/2000/svg">
  <circle fill="#DF3C3D" r="28" cx="138" cy="30.8">
    <animate
      attributeName="r"
      values="15;35"
      dur="1s"
      repeatCount="indefinite"
      calcMode="spline"
      keySplines="0.5 0 0.5 1"
    />
    <animate
      attributeName="opacity"
      values="1;0"
      dur="1s"
      repeatCount="indefinite"
      calcMode="spline"
      keySplines="0.5 0 0.5 1" />
  </circle>
  <mask id="mask0_14_256" style="mask-type:alpha" maskUnits="userSpaceOnUse" x="183" y="50"
    width="441" height="81">
    <path
      d="M183.149 113V53.7603H206.521C211.014 53.7603 214.842 54.6185 218.004 56.3347C221.167 58.0317 223.577 60.3939 225.236 63.4215C226.913 66.4298 227.752 69.9008 227.752 73.8347C227.752 77.7686 226.904 81.2397 225.207 84.2479C223.51 87.2562 221.051 89.5992 217.831 91.2769C214.629 92.9545 210.753 93.7934 206.202 93.7934H191.306V83.7562H204.178C206.588 83.7562 208.574 83.3416 210.136 82.5124C211.718 81.6639 212.894 80.4972 213.665 79.0124C214.456 77.5083 214.851 75.7824 214.851 73.8347C214.851 71.8678 214.456 70.1515 213.665 68.6859C212.894 67.2011 211.718 66.0537 210.136 65.2438C208.555 64.4146 206.55 64 204.12 64H195.674V113H183.149ZM264.148 94.0826V68.5702H276.47V113H264.639V104.93H264.177C263.174 107.533 261.506 109.625 259.173 111.207C256.858 112.788 254.033 113.579 250.697 113.579C247.728 113.579 245.115 112.904 242.858 111.554C240.602 110.204 238.838 108.285 237.565 105.798C236.312 103.31 235.675 100.331 235.656 96.8595V68.5702H247.978V94.6612C247.998 97.2837 248.701 99.3567 250.09 100.88C251.478 102.404 253.339 103.165 255.673 103.165C257.157 103.165 258.546 102.828 259.838 102.153C261.13 101.459 262.171 100.437 262.962 99.0868C263.772 97.7369 264.167 96.0689 264.148 94.0826ZM323.293 81.2397L312.012 81.9339C311.82 80.9697 311.405 80.1019 310.769 79.3306C310.132 78.5399 309.293 77.9132 308.252 77.4504C307.23 76.9683 306.006 76.7273 304.579 76.7273C302.669 76.7273 301.059 77.1322 299.748 77.9421C298.437 78.7328 297.781 79.7934 297.781 81.124C297.781 82.1846 298.205 83.0813 299.054 83.8141C299.902 84.5468 301.358 85.135 303.421 85.5785L311.463 87.1983C315.782 88.0854 319.003 89.5124 321.124 91.4793C323.245 93.4463 324.306 96.0303 324.306 99.2314C324.306 102.143 323.448 104.698 321.731 106.897C320.034 109.095 317.701 110.811 314.731 112.045C311.781 113.26 308.377 113.868 304.521 113.868C298.639 113.868 293.953 112.643 290.463 110.194C286.992 107.726 284.957 104.371 284.36 100.128L296.479 99.4917C296.846 101.285 297.733 102.654 299.14 103.599C300.548 104.525 302.351 104.988 304.55 104.988C306.709 104.988 308.445 104.573 309.756 103.744C311.087 102.895 311.762 101.806 311.781 100.475C311.762 99.3567 311.289 98.4408 310.364 97.7273C309.438 96.9945 308.011 96.4353 306.083 96.0496L298.388 94.5165C294.05 93.6488 290.82 92.1446 288.698 90.0041C286.596 87.8636 285.545 85.135 285.545 81.8182C285.545 78.9642 286.317 76.5055 287.86 74.4421C289.421 72.3788 291.61 70.7879 294.426 69.6694C297.26 68.551 300.577 67.9917 304.376 67.9917C309.988 67.9917 314.404 69.1777 317.624 71.5496C320.864 73.9215 322.753 77.1515 323.293 81.2397ZM344.387 87.3141V113H332.065V53.7603H344.04V76.4091H344.561C345.564 73.7865 347.184 71.7328 349.42 70.2479C351.657 68.7438 354.463 67.9917 357.838 67.9917C360.923 67.9917 363.613 68.6667 365.908 70.0165C368.222 71.3471 370.015 73.2658 371.288 75.7727C372.58 78.2603 373.217 81.2397 373.197 84.7107V113H360.875V86.9091C360.894 84.1708 360.2 82.0399 358.792 80.5165C357.404 78.9931 355.456 78.2314 352.949 78.2314C351.272 78.2314 349.787 78.5882 348.495 79.3017C347.222 80.0152 346.219 81.0565 345.487 82.4256C344.773 83.7755 344.407 85.405 344.387 87.3141ZM383.126 113V53.7603H406.498C410.991 53.7603 414.819 54.6185 417.981 56.3347C421.144 58.0317 423.554 60.3939 425.213 63.4215C426.89 66.4298 427.729 69.9008 427.729 73.8347C427.729 77.7686 426.881 81.2397 425.184 84.2479C423.487 87.2562 421.028 89.5992 417.808 91.2769C414.607 92.9545 410.731 93.7934 406.18 93.7934H391.283V83.7562H404.155C406.565 83.7562 408.552 83.3416 410.114 82.5124C411.695 81.6639 412.871 80.4972 413.643 79.0124C414.433 77.5083 414.829 75.7824 414.829 73.8347C414.829 71.8678 414.433 70.1515 413.643 68.6859C412.871 67.2011 411.695 66.0537 410.114 65.2438C408.532 64.4146 406.527 64 404.097 64H395.651V113H383.126ZM447.956 53.7603V113H435.633V53.7603H447.956ZM486.318 94.0826V68.5702H498.64V113H486.81V104.93H486.347C485.344 107.533 483.676 109.625 481.343 111.207C479.029 112.788 476.204 113.579 472.868 113.579C469.898 113.579 467.285 112.904 465.029 111.554C462.773 110.204 461.008 108.285 459.736 105.798C458.482 103.31 457.846 100.331 457.826 96.8595V68.5702H470.149V94.6612C470.168 97.2837 470.872 99.3567 472.26 100.88C473.649 102.404 475.51 103.165 477.843 103.165C479.328 103.165 480.716 102.828 482.008 102.153C483.3 101.459 484.342 100.437 485.132 99.0868C485.942 97.7369 486.337 96.0689 486.318 94.0826ZM528.513 130.587C524.522 130.587 521.099 130.037 518.245 128.938C515.41 127.858 513.154 126.383 511.476 124.512C509.799 122.642 508.709 120.54 508.208 118.207L519.604 116.674C519.951 117.561 520.501 118.39 521.253 119.161C522.005 119.933 522.998 120.55 524.232 121.012C525.486 121.494 527.009 121.736 528.803 121.736C531.483 121.736 533.691 121.08 535.427 119.769C537.181 118.477 538.059 116.307 538.059 113.26V105.132H537.538C536.998 106.366 536.188 107.533 535.108 108.632C534.029 109.731 532.64 110.628 530.943 111.322C529.246 112.017 527.221 112.364 524.869 112.364C521.533 112.364 518.496 111.592 515.757 110.05C513.038 108.488 510.869 106.106 509.249 102.905C507.648 99.6846 506.848 95.6157 506.848 90.6983C506.848 85.6653 507.668 81.4614 509.307 78.0868C510.946 74.7121 513.125 72.186 515.844 70.5083C518.582 68.8306 521.581 67.9917 524.84 67.9917C527.327 67.9917 529.41 68.416 531.088 69.2645C532.765 70.0937 534.115 71.135 535.137 72.3884C536.179 73.6226 536.979 74.8375 537.538 76.0331H538.001V68.5702H550.237V113.434C550.237 117.213 549.311 120.376 547.46 122.921C545.608 125.467 543.044 127.376 539.765 128.649C536.507 129.941 532.756 130.587 528.513 130.587ZM528.774 103.107C530.76 103.107 532.438 102.616 533.807 101.632C535.195 100.629 536.256 99.2025 536.989 97.3512C537.741 95.4807 538.117 93.2438 538.117 90.6405C538.117 88.0372 537.75 85.781 537.018 83.8719C536.285 81.9435 535.224 80.449 533.836 79.3884C532.447 78.3278 530.76 77.7975 528.774 77.7975C526.749 77.7975 525.042 78.3471 523.654 79.4463C522.265 80.5262 521.215 82.0303 520.501 83.9587C519.788 85.8871 519.431 88.1143 519.431 90.6405C519.431 93.2052 519.788 95.4229 520.501 97.2934C521.234 99.1446 522.285 100.581 523.654 101.603C525.042 102.606 526.749 103.107 528.774 103.107ZM560.042 113V68.5702H572.365V113H560.042ZM566.232 62.843C564.4 62.843 562.829 62.2355 561.518 61.0207C560.226 59.7865 559.58 58.3113 559.58 56.595C559.58 54.8981 560.226 53.4421 561.518 52.2273C562.829 50.9931 564.4 50.376 566.232 50.376C568.064 50.376 569.626 50.9931 570.918 52.2273C572.23 53.4421 572.885 54.8981 572.885 56.595C572.885 58.3113 572.23 59.7865 570.918 61.0207C569.626 62.2355 568.064 62.843 566.232 62.843ZM594.558 87.3141V113H582.236V68.5702H593.979V76.4091H594.5C595.483 73.8251 597.132 71.781 599.446 70.2769C601.76 68.7534 604.566 67.9917 607.864 67.9917C610.949 67.9917 613.639 68.6667 615.934 70.0165C618.229 71.3664 620.012 73.2948 621.285 75.8017C622.558 78.2893 623.194 81.259 623.194 84.7107V113H610.872V86.9091C610.891 84.1901 610.197 82.0689 608.789 80.5455C607.382 79.0028 605.444 78.2314 602.975 78.2314C601.317 78.2314 599.851 78.5882 598.579 79.3017C597.325 80.0152 596.342 81.0565 595.628 82.4256C594.934 83.7755 594.577 85.405 594.558 87.3141Z"
      fill="url(#paint0_linear_14_256)" />
  </mask>
  <g mask="url(#mask0_14_256)">
    <rect y="11" width="628" height="145" fill="black" />
  </g>
  <mask id="mask1_14_256" style="mask-type:alpha" maskUnits="userSpaceOnUse" x="0" y="28"
    width="146" height="128">
    <path fill-rule="evenodd" clip-rule="evenodd"
      d="M5.06995 156C4.56295 156 3.54896 156 3.04197 155.508C1.01399 154.524 0 153.047 0 151.079V57.5754C0 43.7959 11.1539 32.9692 25.3497 32.9692H106.469C107.652 32.9692 108.814 33.0444 109.95 33.1902C110.991 45.6123 119.982 55.7736 131.819 58.5696V98.4392C131.819 112.219 120.665 123.045 106.469 123.045H87.2031C58.3044 123.045 30.4197 136.315 8.61891 155.016C7.60492 155.508 6.08394 156 5.06995 156ZM106.469 36.3632C106.628 36.3632 106.786 36.3647 106.943 36.3678C109.004 48.0333 117.386 57.5079 128.425 61.1359V98.4392C128.425 110.25 118.886 119.651 106.469 119.651H87.2031C57.4469 119.651 28.9601 133.217 6.78124 152.122C6.51275 152.233 6.20488 152.344 5.89553 152.434C5.67145 152.499 5.47344 152.546 5.31227 152.574C5.15623 152.602 5.07881 152.606 5.07053 152.606C5.06979 152.606 5.0696 152.606 5.06995 152.606C4.97431 152.606 4.90049 152.606 4.83207 152.604L4.52385 152.455C3.90438 152.154 3.65644 151.884 3.55814 151.741C3.4779 151.624 3.39394 151.448 3.39394 151.079V57.5754C3.39394 45.7649 12.9323 36.3632 25.3497 36.3632H106.469Z"
      fill="white" />
    <path fill-rule="evenodd" clip-rule="evenodd"
      d="M138.41 59.3338C140.678 59.3338 142.885 59.0694 145 58.5696V99.933C145 114.205 133.847 125.418 119.651 125.418H100.385C71.4862 125.418 43.6015 135.612 21.8007 154.98C20.7867 155.49 19.2657 156 18.2517 156C17.7447 156 16.7307 156 16.2237 155.49C14.1958 154.471 13.1818 152.942 13.1818 150.903V54.0601C13.1818 39.7886 24.3356 28.5752 38.5315 28.5752H109.932C109.877 29.3006 109.849 30.0336 109.849 30.7731C109.849 46.5467 122.636 59.3338 138.41 59.3338ZM62.8676 59.3335H95.3152C100.994 59.3335 105.455 63.5868 105.455 69.0002V86.4003C105.455 91.8136 100.994 96.067 95.3152 96.067H87.6089C76.0494 96.067 64.8955 99.9336 56.1752 107.28C55.7696 107.474 55.1612 107.667 54.7556 107.667C54.5528 107.667 54.1472 107.667 53.9444 107.474C53.1333 107.087 52.7277 106.507 52.7277 105.734V69.0002C52.7277 63.5868 57.1892 59.3335 62.8676 59.3335Z"
      fill="#8632F2" />
  </mask>
  <g mask="url(#mask1_14_256)">
    <rect y="11" width="618" height="145" fill="#DF3C3D" />
  </g>
  <path
    d="M138.41 50.5456C149.33 50.5456 158.183 41.693 158.183 30.7728C158.183 19.8526 149.33 11 138.41 11C127.489 11 118.637 19.8526 118.637 30.7728C118.637 41.693 127.489 50.5456 138.41 50.5456Z"
    fill="#DF3C3D" />
  <defs>
    <linearGradient id="paint0_linear_14_256" x1="184.767" y1="83" x2="628" y2="83"
      gradientUnits="userSpaceOnUse">
      <stop stop-color="#00E0FF" />
      <stop offset="1" stop-color="#000AFF" />
    </linearGradient>
  </defs>
</svg>