<svg width="155" height="145" viewBox="0 0 155 145" fill="none" xmlns="http://www.w3.org/2000/svg">
  <circle fill="#DF3C3D" r="28" cx="127.5" cy="29.5">
    <animate
      attributeName="r"
      values="15;35"
      dur="1s"
      repeatCount="indefinite"
      calcMode="spline"
      keySplines="0.5 0 0.5 1"
    />
    <animate
      attributeName="opacity"
      values="1;0"
      dur="1s"
      repeatCount="indefinite"
      calcMode="spline"
      keySplines="0.5 0 0.5 1" />
  </circle>
  <mask id="mask0_14_25" style="mask-type:alpha" maskUnits="userSpaceOnUse" x="0" y="27" width="134"
    height="118">
    <path fill-rule="evenodd" clip-rule="evenodd"
      d="M4.67949 144.834C4.21154 144.834 3.27564 144.834 2.80769 144.379C0.935897 143.471 0 142.108 0 140.291V53.9892C0 41.271 10.2949 31.2781 23.3974 31.2781H98.2692C99.3611 31.2781 100.433 31.3475 101.482 31.4821C102.443 42.9471 110.741 52.3255 121.667 54.9062V91.7059C121.667 104.424 111.372 114.417 98.2692 114.417H80.4872C53.8141 114.417 28.0769 126.665 7.95513 143.925C7.01923 144.379 5.61538 144.834 4.67949 144.834ZM23.3974 35.3336H97.9423C100.081 45.8672 107.656 54.4164 117.611 57.9352V91.7059C117.611 102.071 109.247 110.361 98.2692 110.361H80.4872C52.7972 110.361 26.3466 122.956 5.77472 140.454C5.59091 140.526 5.38774 140.596 5.18342 140.656C5.00183 140.709 4.8514 140.744 4.74068 140.763C4.71009 140.769 4.68632 140.772 4.66908 140.775L4.57845 140.731C4.24903 140.571 4.10825 140.446 4.06152 140.398C4.05865 140.377 4.05556 140.342 4.05556 140.291V53.9892C4.05556 43.6238 12.42 35.3336 23.3974 35.3336Z"
      fill="white" />
    <path fill-rule="evenodd" clip-rule="evenodd"
      d="M127.75 55.6118C129.844 55.6118 131.88 55.3677 133.833 54.9064V93.0849C133.833 106.257 123.538 116.607 110.436 116.607H92.6538C65.9807 116.607 40.2435 126.016 20.1218 143.893C19.1859 144.363 17.782 144.834 16.8461 144.834C16.3782 144.834 15.4423 144.834 14.9743 144.363C13.1025 143.422 12.1666 142.011 12.1666 140.129V50.7449C12.1666 37.5724 22.4615 27.2227 35.5641 27.2227H101.466C101.415 27.892 101.389 28.5683 101.389 29.2507C101.389 43.8095 113.191 55.6118 127.75 55.6118ZM58.0256 55.6118H87.9744C93.2154 55.6118 97.3333 59.5375 97.3333 64.534V80.594C97.3333 85.5904 93.2154 89.5162 87.9744 89.5162H80.8615C70.1923 89.5162 59.8974 93.0851 51.8487 99.866C51.4744 100.044 50.9128 100.223 50.5385 100.223C50.3513 100.223 49.9769 100.223 49.7897 100.044C49.041 99.6875 48.6667 99.1522 48.6667 98.4384V64.534C48.6667 59.5375 52.7846 55.6118 58.0256 55.6118Z"
      fill="#DF3C3D" />
  </mask>
  <g mask="url(#mask0_14_25)">
    <rect x="-283.889" y="-244.5" width="1277.5" height="665.111" fill="#DF3C3D" />
  </g>
  <path
    d="M127.75 47.5002C137.829 47.5002 146 39.3294 146 29.2502C146 19.1711 137.829 11.0002 127.75 11.0002C117.671 11.0002 109.5 19.1711 109.5 29.2502C109.5 39.3294 117.671 47.5002 127.75 47.5002Z"
    fill="#DF3C3D" />
</svg>